<svg xmlns="http://www.w3.org/2000/svg" width="48" height="48" viewBox="0 0 48 48" fill="none">
    <path d="M48 24C48 24.3406 47.9242 24.6433 47.7726 24.946L47.7346 25.0217L36.6256 44.2054C36.3223 44.6217 35.8294 44.9244 35.2607 45H12.8531C12.2465 44.9622 11.7157 44.6595 11.3744 44.1676L8.37918 38.9838H31.3176C31.3934 38.9838 31.6967 38.9838 31.7346 38.9838C32.3034 38.9081 32.7962 38.6054 33.1375 38.1514C33.2133 38.0379 40.4171 25.5514 40.4171 25.5514L40.4929 25.4C40.7204 24.9838 40.8721 24.4919 40.8721 23.9622C40.8721 23.4325 40.7583 22.9784 40.4929 22.5244L40.4171 22.373C39.8863 21.5027 38.9384 20.9352 37.8768 20.9352H17.0616C16.4929 20.9352 16.0379 20.4811 16.0379 19.9135C16.0379 19.7622 16.0759 19.573 16.1517 19.4595L18.237 15.8649C18.5782 15.3352 19.1849 14.9568 19.9052 14.9568H41.9337C42.6541 14.9568 43.2986 15.3352 43.6398 15.9027L47.7726 23.0541C47.8863 23.3568 48 23.6595 48 24Z" fill="white"/>
    <path d="M31.8104 28.5027C31.8863 28.3514 31.9242 28.2 31.9242 28.0108C31.9242 27.4432 31.4692 26.9892 30.9005 26.9892H10.1232C9.0237 26.9892 8.07583 26.4216 7.54502 25.5514C7.50711 25.5135 7.12796 24.7568 7.12796 24C7.12796 23.4703 7.24171 23.0162 7.46919 22.6C7.50711 22.5622 14.7867 9.96216 14.7867 9.92432C14.9384 9.65946 15.1659 9.47027 15.4313 9.28108C15.7346 9.09189 16.1137 8.97838 16.3033 8.97838C17.5924 8.97838 27.2228 8.97838 27.2228 8.97838H39.6209L36.7014 3.94595C36.3602 3.41622 35.7915 3.03784 35.109 3H12.891C12.2464 3.03784 11.6777 3.37838 11.3365 3.87027L11.1848 4.13514L0.227488 23.0541C0.0758288 23.3189 0 23.6595 0 24C0 24.3405 0.0758288 24.6432 0.227488 24.9459L4.3981 32.1351C4.73934 32.6649 5.34597 33.0054 6.02843 33.0054H28.019H28.0569C28.7773 33.0054 29.4218 32.627 29.763 32.0595L31.8104 28.5027Z" fill="white"/>
</svg>